# Blender 4.0.2
# www.blender.org
mtllib torchfrim.mtl
o Torch Bottom
v 0.250000 0.600000 -0.250000
v 0.250000 -1.100000 -0.250000
v 0.250000 0.600000 0.250000
v 0.250000 -1.100000 0.250000
v -0.250000 0.600000 -0.250000
v -0.250000 -1.100000 -0.250000
v -0.250000 0.600000 0.250000
v -0.250000 -1.100000 0.250000
v -0.251160 0.600000 0.248633
v -0.251160 0.600000 -0.250088
v 0.248968 0.600000 0.248633
v 0.248968 0.600000 -0.250088
vn -0.0000 1.0000 -0.0000
vn -0.0000 -0.0000 1.0000
vn -1.0000 -0.0000 -0.0000
vn -0.0000 -1.0000 -0.0000
vn 1.0000 -0.0000 -0.0000
vn -0.0000 -0.0000 -1.0000
vt 0.333295 0.333295
vt 0.499885 0.333295
vt 0.499885 0.499885
vt 0.333295 0.499885
vt 0.166705 0.499885
vt 0.333295 0.666474
vt 0.166705 0.666474
vt 0.166705 0.000115
vt 0.333295 0.000115
vt 0.333295 0.166705
vt 0.166705 0.166705
vt 0.000115 0.333295
vt 0.166705 0.333295
vt 0.000115 0.499885
vt 0.500115 0.333295
vt 0.666705 0.333295
vt 0.666705 0.499885
vt 0.500115 0.499885
s 0
usemtl Material
f 1/1/1 5/2/1 7/3/1 3/4/1
f 4/5/2 3/4/2 7/6/2 8/7/2
f 8/8/3 7/9/3 5/10/3 6/11/3
f 6/12/4 2/13/4 4/5/4 8/14/4
f 2/13/5 1/1/5 3/4/5 4/5/5
f 6/11/6 5/10/6 1/1/6 2/13/6
f 10/15/4 12/16/4 11/17/4 9/18/4
o Torch_Top
v 0.250000 0.600000 -0.250088
v 0.250000 1.101160 -0.250088
v 0.250000 0.600000 0.250000
v 0.250000 1.101160 0.250000
v -0.251160 0.600000 -0.250088
v -0.251160 1.101160 -0.250088
v -0.251160 0.600000 0.250000
v -0.251160 1.101160 0.250000
vn 1.0000 -0.0000 -0.0000
vn -0.0000 -0.0000 1.0000
vn -1.0000 -0.0000 -0.0000
vn -0.0000 -0.0000 -1.0000
vn -0.0000 -1.0000 -0.0000
vn -0.0000 1.0000 -0.0000
vt 0.375000 0.000000
vt 0.625000 0.000000
vt 0.625000 0.250000
vt 0.375000 0.250000
vt 0.625000 0.500000
vt 0.375000 0.500000
vt 0.625000 0.750000
vt 0.375000 0.750000
vt 0.625000 1.000000
vt 0.375000 1.000000
vt 0.125000 0.500000
vt 0.125000 0.750000
vt 0.875000 0.500000
vt 0.875000 0.750000
s 0
usemtl Material.001
f 13/19/7 14/20/7 16/21/7 15/22/7
f 15/22/8 16/21/8 20/23/8 19/24/8
f 19/24/9 20/23/9 18/25/9 17/26/9
f 17/26/10 18/25/10 14/27/10 13/28/10
f 15/29/11 19/24/11 17/26/11 13/30/11
f 20/23/12 16/31/12 14/32/12 18/25/12
