# Blender 4.0.2
# www.blender.org
mtllib zombie_frim.mtl
o Torso
v 0.218643 0.924708 -0.349218
v 0.218643 -0.324806 -0.349218
v 0.218643 0.924708 0.349218
v 0.218643 -0.324806 0.349218
v -0.218643 0.924708 -0.349218
v -0.218643 -0.324806 -0.349218
v -0.218643 0.924708 0.349218
v -0.218643 -0.324806 0.349218
vn -0.0000 1.0000 -0.0000
vn -0.0000 -0.0000 1.0000
vn -1.0000 -0.0000 -0.0000
vn -0.0000 -1.0000 -0.0000
vn 1.0000 -0.0000 -0.0000
vn -0.0000 -0.0000 -1.0000
vt 0.187438 0.976229
vt 0.030639 0.976229
vt 0.030639 0.819430
vt 0.187438 0.819430
vt 0.274113 0.622230
vt 0.338363 0.622230
vt 0.338363 0.779030
vt 0.274113 0.779030
vt 0.187438 0.425031
vt 0.187438 0.581830
vt 0.030639 0.581830
vt 0.030639 0.425031
vt 0.227839 0.425031
vt 0.384638 0.425031
vt 0.384638 0.581830
vt 0.227839 0.581830
vt 0.187438 0.622230
vt 0.187438 0.779030
vt 0.030639 0.779030
vt 0.030639 0.622230
vt 0.336717 0.819430
vt 0.336717 0.976229
vt 0.275759 0.976229
vt 0.275759 0.819430
s 0
usemtl Material
f 1/1/1 5/2/1 7/3/1 3/4/1
f 4/5/2 3/6/2 7/7/2 8/8/2
f 8/9/3 7/10/3 5/11/3 6/12/3
f 6/13/4 2/14/4 4/15/4 8/16/4
f 2/17/5 1/18/5 3/19/5 4/20/5
f 6/21/6 5/22/6 1/23/6 2/24/6
o Head
v -0.321279 0.886969 0.396589
v -0.321279 1.637983 0.396589
v -0.321279 0.886969 -0.396589
v -0.321279 1.637983 -0.396589
v 0.321279 0.886969 0.396589
v 0.321279 1.637983 0.396589
v 0.321279 0.886969 -0.396589
v 0.321279 1.637983 -0.396589
vn -1.0000 -0.0000 -0.0000
vn -0.0000 -0.0000 -1.0000
vn 1.0000 -0.0000 -0.0000
vn -0.0000 -0.0000 1.0000
vn -0.0000 -1.0000 -0.0000
vn -0.0000 1.0000 -0.0000
vt 0.161670 0.025677
vt 0.161670 0.211847
vt 0.028895 0.211847
vt 0.028895 0.025677
vt 0.662382 0.025677
vt 0.662382 0.211846
vt 0.565098 0.211846
vt 0.565098 0.025677
vt 0.352234 0.025677
vt 0.352234 0.211847
vt 0.219459 0.211847
vt 0.219459 0.025677
vt 0.507308 0.025677
vt 0.507308 0.211846
vt 0.410024 0.211846
vt 0.410024 0.025677
vt 0.282803 0.368307
vt 0.185519 0.368307
vt 0.185519 0.235532
vt 0.282803 0.235532
vt 0.030445 0.235532
vt 0.127729 0.235532
vt 0.127729 0.368307
vt 0.030445 0.368307
s 0
f 9/25/7 10/26/7 12/27/7 11/28/7
f 11/29/8 12/30/8 16/31/8 15/32/8
f 15/33/9 16/34/9 14/35/9 13/36/9
f 13/37/10 14/38/10 10/39/10 9/40/10
f 11/41/11 15/42/11 13/43/11 9/44/11
f 16/45/12 12/46/12 10/47/12 14/48/12
o RightArm
v -0.211492 -0.316166 -0.340364
v -0.211492 -0.316166 -0.630798
v 0.205802 -0.316166 -0.340363
v 0.205802 -0.316166 -0.630798
v -0.211492 0.879596 -0.340364
v -0.211492 0.879596 -0.630798
v 0.205802 0.879596 -0.340363
v 0.205802 0.879596 -0.630798
vn -0.0000 -1.0000 -0.0000
vn 1.0000 -0.0000 -0.0000
vn -0.0000 1.0000 -0.0000
vn -1.0000 -0.0000 -0.0000
vn -0.0000 -0.0000 1.0000
vn -0.0000 -0.0000 -1.0000
vt 0.882857 0.857161
vt 0.882857 0.927545
vt 0.836061 0.927545
vt 0.836061 0.857161
vt 0.569098 0.991258
vt 0.498713 0.991258
vt 0.498713 0.857161
vt 0.569098 0.857161
vt 0.685078 0.810485
vt 0.614693 0.810485
vt 0.614693 0.763688
vt 0.685078 0.763688
vt 0.567328 0.817058
vt 0.496944 0.817058
vt 0.496944 0.682960
vt 0.567328 0.682960
vt 0.731474 0.991258
vt 0.731474 0.857161
vt 0.778271 0.857161
vt 0.778271 0.991258
vt 0.626887 0.991258
vt 0.626887 0.857161
vt 0.673684 0.857161
vt 0.673684 0.991258
s 0
f 17/49/13 18/50/13 20/51/13 19/52/13
f 19/53/14 20/54/14 24/55/14 23/56/14
f 23/57/15 24/58/15 22/59/15 21/60/15
f 21/61/16 22/62/16 18/63/16 17/64/16
f 19/65/17 23/66/17 21/67/17 17/68/17
f 24/69/18 20/70/18 18/71/18 22/72/18
o LeftArm
v -0.211492 -0.316166 0.630227
v -0.211492 -0.316166 0.339793
v 0.205802 -0.316166 0.630227
v 0.205802 -0.316166 0.339793
v -0.211492 0.879596 0.630227
v -0.211492 0.879596 0.339793
v 0.205802 0.879596 0.630227
v 0.205802 0.879596 0.339793
vn -0.0000 -1.0000 -0.0000
vn 1.0000 -0.0000 -0.0000
vn -0.0000 1.0000 -0.0000
vn -1.0000 -0.0000 -0.0000
vn -0.0000 -0.0000 1.0000
vn -0.0000 -0.0000 -1.0000
vt 0.882857 0.857161
vt 0.882857 0.927545
vt 0.836061 0.927545
vt 0.836061 0.857161
vt 0.569098 0.991258
vt 0.498713 0.991258
vt 0.498713 0.857161
vt 0.569098 0.857161
vt 0.685078 0.810485
vt 0.614693 0.810485
vt 0.614693 0.763688
vt 0.685078 0.763688
vt 0.567328 0.817058
vt 0.496944 0.817058
vt 0.496944 0.682960
vt 0.567328 0.682960
vt 0.731474 0.991258
vt 0.731474 0.857161
vt 0.778271 0.857161
vt 0.778271 0.991258
vt 0.626887 0.991258
vt 0.626887 0.857161
vt 0.673684 0.857161
vt 0.673684 0.991258
s 0
f 25/73/19 26/74/19 28/75/19 27/76/19
f 27/77/20 28/78/20 32/79/20 31/80/20
f 31/81/21 32/82/21 30/83/21 29/84/21
f 29/85/22 30/86/22 26/87/22 25/88/22
f 27/89/23 31/90/23 29/91/23 25/92/23
f 32/93/24 28/94/24 26/95/24 30/96/24
o RightLeg
v 0.179672 -0.313718 -0.060068
v 0.179672 -1.382378 -0.060068
v 0.179672 -0.313718 -0.339211
v 0.179672 -1.382378 -0.339211
v -0.177001 -0.313718 -0.060068
v -0.177001 -1.382378 -0.060068
v -0.177001 -0.313718 -0.339211
v -0.177001 -1.382378 -0.339211
vn 1.0000 -0.0000 -0.0000
vn -0.0000 -0.0000 -1.0000
vn -1.0000 -0.0000 -0.0000
vn -0.0000 -0.0000 1.0000
vn -0.0000 1.0000 -0.0000
vn -0.0000 -1.0000 -0.0000
vt 0.901914 0.681712
vt 0.901914 0.570137
vt 0.961216 0.570137
vt 0.961216 0.681712
vt 0.967007 0.229333
vt 0.967007 0.340908
vt 0.896123 0.340908
vt 0.896123 0.229333
vt 0.640248 0.489908
vt 0.640248 0.378333
vt 0.699550 0.378333
vt 0.699550 0.489908
vt 0.967007 0.402631
vt 0.967007 0.514206
vt 0.896123 0.514206
vt 0.896123 0.402631
vt 0.757647 0.422458
vt 0.828532 0.422458
vt 0.828532 0.481759
vt 0.757647 0.481759
vt 0.757647 0.260743
vt 0.828532 0.260743
vt 0.828532 0.320044
vt 0.757647 0.320044
s 0
f 33/97/25 34/98/25 36/99/25 35/100/25
f 35/101/26 36/102/26 40/103/26 39/104/26
f 39/105/27 40/106/27 38/107/27 37/108/27
f 37/109/28 38/110/28 34/111/28 33/112/28
f 35/113/29 39/114/29 37/115/29 33/116/29
f 40/117/30 36/118/30 34/119/30 38/120/30
o LeftLeg
v 0.179672 -0.313718 0.323293
v 0.179672 -1.382378 0.323293
v 0.179672 -0.313718 0.044150
v 0.179672 -1.382378 0.044150
v -0.177001 -0.313718 0.323293
v -0.177001 -1.382378 0.323293
v -0.177001 -0.313718 0.044150
v -0.177001 -1.382378 0.044150
vn 1.0000 -0.0000 -0.0000
vn -0.0000 -0.0000 -1.0000
vn -1.0000 -0.0000 -0.0000
vn -0.0000 -0.0000 1.0000
vn -0.0000 1.0000 -0.0000
vn -0.0000 -1.0000 -0.0000
vt 0.901914 0.681712
vt 0.901914 0.570137
vt 0.961216 0.570137
vt 0.961216 0.681712
vt 0.967007 0.229333
vt 0.967007 0.340908
vt 0.896123 0.340908
vt 0.896123 0.229333
vt 0.640248 0.489908
vt 0.640248 0.378333
vt 0.699550 0.378333
vt 0.699550 0.489908
vt 0.967007 0.402631
vt 0.967007 0.514206
vt 0.896123 0.514206
vt 0.896123 0.402631
vt 0.757647 0.422458
vt 0.828532 0.422458
vt 0.828532 0.481759
vt 0.757647 0.481759
vt 0.757647 0.260743
vt 0.828532 0.260743
vt 0.828532 0.320044
vt 0.757647 0.320044
s 0
f 41/121/31 42/122/31 44/123/31 43/124/31
f 43/125/32 44/126/32 48/127/32 47/128/32
f 47/129/33 48/130/33 46/131/33 45/132/33
f 45/133/34 46/134/34 42/135/34 41/136/34
f 43/137/35 47/138/35 45/139/35 41/140/35
f 48/141/36 44/142/36 42/143/36 46/144/36
